<svg id="Layer_1" data-name="Layer 1" xmlns="http://www.w3.org/2000/svg" viewBox="0 0 1584 540"><defs><style>.cls-1{fill:#243687;}</style></defs><path class="cls-1" d="M129.92,409c5.34-16.5,9.72-30.38,14.32-44.2,7-20.93,13.82-41.9,21.18-62.69,8.78-24.79,28.24-38.49,54.51-38.71,26.92-.22,53.84-.25,80.76-.28,14.61,0,14.58.06,14.86,14.8.07,3.3.34,6.59.67,9.87.06.58.88,1.08,2.65,3.11l62.32-52.82-61.65-52.49-3.1,1.21c-.31,5.94.07,12-1.18,17.74-.67,3.06-4.09,7.82-6.36,7.87-25.33.57-50.68.36-78.21.36,3.73-12.11,6.8-22.46,10.11-32.74,4.19-12.94,8.11-26,13.13-38.62,1.62-4.08,6.33-9.88,9.62-9.88,31.66,0,63.62-1.36,94.9,2.52,46.74,5.79,84.4,49.48,86.71,95.55,2.61,52.17-28.54,97.51-76.79,110.4-11.23,3-23.21,4.1-34.88,4.35-28.38.59-56.79.35-85.19,0-7.67-.08-12.17,2-14.51,10-4.55,15.52-9.83,30.85-15.52,46-1.29,3.43-5.39,8.2-8.3,8.27C184.24,409.27,158.49,409,129.92,409Z"/><path class="cls-1" d="M129.93,212.56c8.7-26.47,16.13-50.22,24.6-73.6,1.27-3.51,7.22-7.27,11.21-7.51,15-.91,30.12-.27,45.18-.49,7.44-.11,10.18,2.46,7.66,10-7.24,21.55-14.12,43.21-21.49,64.7-.91,2.68-3.85,6.57-5.94,6.63C171.49,212.76,151.82,212.56,129.93,212.56Z"/><path d="M495.89,193.25h38.72c19,0,19.14,0,24.1,1.56,7.6,2.47,12,8.2,12,15.87,0,5.85-2.33,16.65-5.4,24.85-4.38,11.7-14.32,18.47-27.62,19-.87.13-3.79.13-15.34.39h-18.7l-6,25.11h-22.5Zm30.53,44.36c10.52,0,13.88-1,16.51-5.2,1.76-2.87,4.1-11.84,4.1-15.61,0-5.86-2.2-7-12.86-7H514.44l-6.72,27.84Z"/><path d="M667.57,193.25l-13.3,56.2c-1.9,7.67-4.67,15-7.16,18.21-3.94,5.33-10.81,9.62-18.26,11.45-4.38,1-12.13,1.56-22.79,1.56-15.2,0-21.19-.65-27.18-3-6.57-2.47-9.94-7.15-9.94-13.78,0-3.39.59-6.9,2-13l13.73-57.63h22.51l-13.74,57.63a34.46,34.46,0,0,0-.88,6.37c0,4.68,4.24,6.25,17.39,6.25,15.93,0,18.7-1.83,21.63-13.53l13.44-56.72Z"/><path d="M758.3,232.41c-2.33,12-5.4,23.93-7.16,28.74-3.36,9-10.95,15.35-21.33,17.83-4.82,1.17-13.59,1.69-27,1.69-18.26,0-24.69-1.3-30.68-6.12-3.8-3.12-6.14-8.84-6.14-15.09,0-7.41,7.16-36.94,11-44.88,4.68-9.88,11.25-15.74,21.48-19.25,6.43-2.08,13.15-2.73,29.51-2.73,13.3,0,19.14.39,23.67,1.82,7.89,2.47,11.25,6.9,11.25,14.7a51,51,0,0,1-1.46,10.67H738.73c.14-1.69.29-2.47.29-3.65,0-5.46-3.22-6.76-17.24-6.76-18.56,0-22.36,2.6-26.3,18.47-4.09,15.87-5.7,23.81-5.7,27.32,0,6.63,4.24,8.72,18.12,8.72,18.11,0,21.91-2.61,24.83-17.31H711.4l3.51-14.17Z"/><path d="M794.69,228.76h43.39l-3.36,14.18h-43.4l-5,20.56h46.75L829.17,280H759.91l20.75-86.77h68.52l-3.94,16.52h-46Z"/><path d="M881.91,280h-22.5l16.51-69.47h-26.3l4.09-17.3h76.56L926,210.55H898.57Z"/><path d="M1022.91,219.53a17.25,17.25,0,0,0,1-5.73c0-4.42-3.21-5.72-14.32-5.72s-15.05.91-17.68,3.77a16.75,16.75,0,0,0-3.5,10.15c0,2.86,1.31,4.16,4.53,5.07,1.9.39,1.9.39,17.53,1.3,15.34.78,20.46,1.82,24.84,4.69,3.51,2.34,5.26,5.72,5.26,10.27,0,3.25-1.46,10.41-3.21,16-3.37,10.15-7.89,15.09-16.66,18.34-6.28,2.22-13.44,3-27.91,3-19,0-26-1-31.56-4.56-3.07-1.95-5.11-6.24-5.11-10.53,0-3.65.44-6.51,2-13.4h21.48a21.71,21.71,0,0,0-1,6.5,5.45,5.45,0,0,0,2.48,4.69c2.34,1.3,4,1.43,16.22,1.43,8.18,0,9.79-.13,12.57-1.3,3.06-1.18,4.53-3,6-6.77a24.88,24.88,0,0,0,1.31-6.5c0-2.47-1.17-3.91-3.65-4.82-1.9-.52-1.9-.52-17.1-1.43-15.78-.91-20-1.56-24.54-3.77s-6.87-6.24-6.87-11.58c0-10,4.53-22.63,10.08-27.84,6.58-6.11,16.07-8.19,38.14-8.19,16.51,0,23.23,1,28.34,4.55,2.92,1.95,4.82,6.25,4.82,10.54,0,3.64-.43,6.24-1.9,11.84Z"/><path d="M1132.93,195.59c8,3.38,11.84,9.24,11.84,18.34,0,7.29-6.14,34.22-9.79,42.93-4.39,10.28-10.23,16.26-19.87,20-7,2.74-15.35,3.78-30.25,3.78-14.61,0-20.89-.91-26.74-3.65-6.86-3.38-10.37-9.1-10.37-17.43,0-7.8,6-33.56,10.23-43.58s9.93-15.61,20.16-19.77c7-2.73,14.61-3.64,30.39-3.64C1121.54,192.6,1127.82,193.38,1132.93,195.59Zm-50.7,19.64c-2.63,3.26-3.65,6-7,19.65-2.92,11.83-3.8,16.52-3.8,19.64,0,7.67,2.92,9,19.72,9,15.49,0,19.44-2.48,23.53-15.09,2.34-7.42,6.43-25.89,6.43-29.53,0-4.17-1.32-6.51-4.24-7.68-2.63-1.17-5.55-1.43-14.47-1.43C1089.83,209.77,1085.88,210.81,1082.23,215.23Z"/><path d="M1246.9,193.25l-13.3,56.2c-1.9,7.67-4.67,15-7.16,18.21-3.94,5.33-10.81,9.62-18.26,11.45-4.39,1-12.13,1.56-22.79,1.56-15.2,0-21.19-.65-27.18-3-6.58-2.47-9.94-7.15-9.94-13.78,0-3.39.59-6.9,2-13l13.73-57.63h22.5l-13.73,57.63a34.46,34.46,0,0,0-.88,6.37c0,4.68,4.24,6.25,17.39,6.25,15.93,0,18.7-1.83,21.62-13.53l13.45-56.72Z"/><path d="M1336.46,280h-38l-11.54-42c-1.31-4.94-1.9-7.94-4.38-20.68l-1.46-6.9h-.88c-2.34,12-4.24,21.2-5.7,27.58l-9.93,42h-22.07l20.75-86.77H1301l10.66,40.2c2.63,9.75,2.63,9.88,6.73,28.87h.87l1.32-6.76c1.9-9.76,2-11.06,4.24-20.16l10.08-42.15h22.35Z"/><path d="M1373.58,193.25h49.53a80.21,80.21,0,0,1,15.49,1.56c9.64,2.21,15.48,9.76,15.48,19.64,0,6.12,0,6.25-5.4,27.71-3.07,11.71-4.83,16.52-7.75,21.07-7.6,11.84-19.14,16.79-39,16.79h-49.09Zm29.51,69.59c10.52,0,16.51-3.38,19.58-11s7.45-26.54,7.45-32.13c0-6.38-3.94-9-13.88-9H1392l-12.57,52.16Z"/><path d="M495.89,321.64h49.53a80.21,80.21,0,0,1,15.49,1.56c9.64,2.21,15.48,9.76,15.48,19.64,0,6.12,0,6.25-5.4,27.71-3.07,11.71-4.82,16.52-7.75,21.08-7.59,11.83-19.14,16.78-39,16.78H475.14Zm29.51,69.6c10.52,0,16.51-3.39,19.58-11.06s7.45-26.54,7.45-32.13c0-6.38-3.94-9-13.88-9H514.3l-12.57,52.17Z"/><path d="M595.83,321.64h48.5c10.09,0,16.22.91,20.31,2.86a13.77,13.77,0,0,1,8,13c0,8.59-4.38,22.64-8.62,28-3.51,4.29-7.45,6.11-16.95,7.93l-.15.65c9.36.52,13.88,4.3,13.88,11.32a19,19,0,0,1-.87,5.73l-4.09,17.3h-22.8l3.22-13.53a18.9,18.9,0,0,0,.73-5.21c0-5.07-3.07-7.15-10.52-7.15H603.86l-6.28,25.89h-22.5Zm35.35,43.84c7.75,0,11.55-1.82,13.89-6.77,1.31-2.47,3.36-11.18,3.36-13.65,0-4.82-2.49-6.25-11-6.25H614.24l-6.43,26.67Z"/><path d="M692.41,392.67l-9.21,15.74H659.82l51.58-86.77H745l10.66,86.77H732.59l-1.76-15.74ZM725,336.73,700.88,378h28.64Z"/><path d="M808.13,376.8l-7.6,31.61H778l7.6-31.61L764,321.64h25.72l7,19.77c.88,2.73,2.34,7.42,4.68,15.35h.73l3.06-3.9c5.41-6.76,6.73-8.33,9.36-11.45l16.65-19.77h25.86Z"/><path d="M856.05,392.67l-9.2,15.74H823.47l51.58-86.77h33.6l10.67,86.77H896.23l-1.75-15.74Zm32.59-55.94L864.53,378h28.64Z"/><path d="M1018.82,360.8c-2.33,12-5.4,23.93-7.16,28.74-3.36,9-10.95,15.35-21.33,17.83-4.82,1.17-13.59,1.69-27,1.69-18.26,0-24.69-1.3-30.68-6.12-3.8-3.12-6.14-8.84-6.14-15.09,0-7.41,7.16-36.94,11-44.88,4.68-9.88,11.25-15.74,21.48-19.25,6.43-2.08,13.15-2.73,29.51-2.73,13.3,0,19.14.39,23.67,1.82,7.89,2.47,11.25,6.9,11.25,14.7a51,51,0,0,1-1.46,10.67H999.24c.15-1.69.3-2.47.3-3.65,0-5.46-3.22-6.76-17.24-6.76-18.56,0-22.36,2.6-26.3,18.47-4.1,15.87-5.7,23.81-5.7,27.32,0,6.63,4.23,8.72,18.12,8.72,18.11,0,21.91-2.61,24.83-17.31H971.92l3.51-14.17Z"/><path d="M1055.2,357.15h43.4l-3.36,14.18h-43.4l-5,20.56h46.75l-3.94,16.52h-69.26l20.75-86.77h68.52l-3.94,16.52h-46Z"/></svg>