<svg xmlns="http://www.w3.org/2000/svg" version="1.1" xmlns:xlink="http://www.w3.org/1999/xlink" width="512" height="512" x="0" y="0" viewBox="0 0 512 512" style="enable-background:new 0 0 512 512" xml:space="preserve" class=""><g><path fill-rule="evenodd" d="m259.336 153.399 8.861 4.808c4.331-3.538 7.095-8.919 7.095-14.949a7 7 0 1 1 14 0 33.17 33.17 0 0 1-8.24 21.924l195.497 106.074c.967.524.489 2.009-.602 1.871l-32.982-4.168-137.82-74.779 72.242 64.655c.729.653.18 1.86-.792 1.737l-20.853-2.635a.961.961 0 0 1-.541-.247l-91.627-82.003a33.528 33.528 0 0 1-15.64-.12L177.8 235.119a.97.97 0 0 1-.772.23l-16.097-2.034c-.863-.109-1.185-1.19-.522-1.754l49.456-41.996-113.022 54.531-48.816 10.234c-1.146.24-1.694-1.371-.639-1.879l182.783-88.19a33.15 33.15 0 0 1-7.463-21.002c0-15.699 10.988-29.278 26.293-32.555V83.601c-10.416-3.029-18.028-12.642-18.028-24.034S238.584 38.561 249 35.532V19.5a7 7 0 1 1 14 0v16.032c10.416 3.029 18.028 12.642 18.028 24.034S273.415 80.572 263 83.601v33.366a7 7 0 0 1-7 7c-10.657 0-19.293 8.636-19.293 19.293 0 5.843 2.597 11.078 6.699 14.616l9.377-4.524a7.05 7.05 0 0 1 6.553.047zm-103.478 93.385a1.992 1.992 0 0 0-2.251 1.984V499.5l340.644-43.051a1.992 1.992 0 0 0 1.749-1.984v-162.93a1.992 1.992 0 0 0-1.749-1.984zm32.748 41.658a1.992 1.992 0 0 1 2.251-1.984l17.363 2.195a1.992 1.992 0 0 1 1.749 1.984v164.726a1.992 1.992 0 0 1-1.749 1.984l-17.363 2.195a1.992 1.992 0 0 1-2.251-1.984zm37.614 166.631a1.992 1.992 0 0 1-2.251-1.984V292.911a1.992 1.992 0 0 1 2.251-1.984l18.65 2.357a1.992 1.992 0 0 1 1.749 1.984v155.463a1.992 1.992 0 0 1-1.749 1.984zm36.649-4.632a1.992 1.992 0 0 1-2.251-1.984V297.544a1.992 1.992 0 0 1 2.251-1.984l18.65 2.357a1.992 1.992 0 0 1 1.749 1.984V446.1a1.992 1.992 0 0 1-1.749 1.984zm36.649-4.632a1.992 1.992 0 0 1-2.251-1.984v-141.65a1.992 1.992 0 0 1 2.251-1.984l18.65 2.357a1.992 1.992 0 0 1 1.749 1.984v136.935a1.992 1.992 0 0 1-1.749 1.984zm36.65-4.632a1.992 1.992 0 0 1-2.251-1.984V306.807a1.992 1.992 0 0 1 2.251-1.984l18.65 2.357a1.992 1.992 0 0 1 1.749 1.984v127.672a1.992 1.992 0 0 1-1.749 1.984zm36.649-4.632a1.992 1.992 0 0 1-2.251-1.984V311.439a1.992 1.992 0 0 1 2.251-1.984l18.65 2.357a1.992 1.992 0 0 1 1.749 1.984v118.408a1.992 1.992 0 0 1-1.749 1.984zm36.65-4.631a1.992 1.992 0 0 1-2.251-1.984V316.071a1.992 1.992 0 0 1 2.251-1.984l18.651 2.357a1.992 1.992 0 0 1 1.749 1.984v109.144a1.992 1.992 0 0 1-1.749 1.984zm36.65-4.633a1.992 1.992 0 0 1-2.251-1.984V320.703a1.992 1.992 0 0 1 2.251-1.984l13.134 1.66a1.992 1.992 0 0 1 1.749 1.984v101.274a1.992 1.992 0 0 1-1.749 1.984zm-271.511 40.458c0 4.49 4.087 7.396 8.492 6.84l285.777-36.117c3.527-.446 6.129-3.453 6.125-6.918V314.456c0-4.147-2.941-6.513-6.807-7.004l-285.712-36.109c-4.122-.521-7.871 2.761-7.875 6.918zM137.197 249.94l-53.804 11.28a1.983 1.983 0 0 0-1.589 1.957v219.646c0 .956.653 1.761 1.589 1.957l53.804 11.28a1.993 1.993 0 0 0 2.41-1.957V251.897a1.993 1.993 0 0 0-2.41-1.957zm-71.804 15.053-47.804 10.022A1.983 1.983 0 0 0 16 276.972v192.056c0 .956.653 1.761 1.589 1.957l47.804 10.022a1.993 1.993 0 0 0 2.41-1.957v-212.1a1.993 1.993 0 0 0-2.41-1.957zm29.498 63.484a7 7 0 1 1 14 0v89.005a7 7 0 1 1-14 0zm-53.027 5.616a7 7 0 1 1 14 0v77.815a7 7 0 1 1-14 0zM256 52.566a7 7 0 1 0 0 14 7 7 0 0 0 0-14z" clip-rule="evenodd" fill="#00e6ad" opacity="1" data-original="#000000" class=""></path></g></svg>