<svg xmlns="http://www.w3.org/2000/svg" version="1.1" xmlns:xlink="http://www.w3.org/1999/xlink" width="512" height="512" x="0" y="0" viewBox="0 0 512 512" style="enable-background:new 0 0 512 512" xml:space="preserve" class="hovered-paths"><g><path d="M16 348.708h321.53a7 7 0 0 0 7-7V180.943a7 7 0 0 0-3.322-5.956L196.14 85.401a20.282 20.282 0 0 0 1.022-6.341 6.998 6.998 0 0 0-13.819-1.562l-2.9-1.791a7.003 7.003 0 0 0-7.355 0l-2.447 1.511c.793-2.632 3.237-4.556 6.125-4.556a7 7 0 0 0 7-7v-10.8c7.442-2.834 12.752-10.023 12.752-18.447s-5.311-15.614-12.752-18.448V16a7 7 0 1 0-14 0v1.967c-7.442 2.834-12.753 10.024-12.753 18.448s5.311 15.613 12.753 18.447V59.9c-7.809 2.862-13.397 10.371-13.397 19.16 0 2.215.366 4.343 1.022 6.341L12.322 174.987A7 7 0 0 0 9 180.943v160.765a7 7 0 0 0 7 7zM176.765 42.167c-3.172 0-5.753-2.58-5.753-5.752s2.581-5.753 5.753-5.753 5.752 2.581 5.752 5.753-2.58 5.752-5.752 5.752zM23 334.708V187.943h307.53v146.765zm153.765-235.25c3.891 0 7.517-1.115 10.614-3.013l125.493 77.498H40.657L166.15 96.445c3.098 1.898 6.725 3.013 10.615 3.013zm6.999 118.152v88.791a7 7 0 1 1-14 0V217.61a7 7 0 1 1 14 0zm41.353 0v88.791a7 7 0 1 1-14 0V217.61a7 7 0 1 1 14 0zm-165.411-1.36v88.791a7 7 0 1 1-14 0V216.25a7 7 0 1 1 14 0zm206.764 1.36v88.791a7 7 0 1 1-14 0V217.61a7 7 0 1 1 14 0zm-165.411-1.36v88.791a7 7 0 1 1-14 0V216.25a7 7 0 1 1 14 0zm41.353 1.36v88.791a7 7 0 1 1-14 0V217.61a7 7 0 1 1 14 0zm165.411 0v88.791a7 7 0 1 1-14 0V217.61a7 7 0 1 1 14 0zm191.943 164.408-27.378-42.281c-3.783-5.84-9.942-9.189-16.9-9.189h-68.304a7 7 0 0 0-7 7v92.329H344.53v-18.889a7 7 0 0 0-7-7H16a7 7 0 0 0-7 7v25.889a7 7 0 0 0 7 7h20.069c-4.893 6.219-7.823 14.052-7.823 22.562 0 20.16 16.402 36.562 36.562 36.562s36.561-16.401 36.561-36.562c0-8.509-2.93-16.342-7.823-22.562h18.822c-4.893 6.219-7.823 14.052-7.823 22.562 0 20.16 16.401 36.562 36.562 36.562s36.562-16.401 36.562-36.562c0-8.509-2.93-16.342-7.823-22.562h117.992c-4.893 6.219-7.823 14.052-7.823 22.562 0 20.16 16.401 36.562 36.562 36.562 13.201 0 24.788-7.033 31.216-17.548h53.812C408.031 495.966 419.619 503 432.819 503s24.788-7.033 31.216-17.548h21.773c9.479 0 17.191-7.712 17.191-17.19v-75.299c.001-4.005-1.058-7.587-3.233-10.945zM23 417.988h307.53v11.889H23zm64.369 48.45c0 12.44-10.121 22.562-22.561 22.562-12.441 0-22.562-10.121-22.562-22.562s10.121-22.562 22.562-22.562c12.44 0 22.561 10.122 22.561 22.562zm76.298 0c0 12.44-10.121 22.562-22.562 22.562s-22.562-10.121-22.562-22.562 10.121-22.562 22.562-22.562 22.562 10.122 22.562 22.562zM316.574 489c-12.44 0-22.562-10.121-22.562-22.562s10.121-22.562 22.562-22.562 22.562 10.121 22.562 22.562S329.015 489 316.574 489zm28.738-45.124h34.871v27.575h-27.4a36.69 36.69 0 0 0 .352-5.014c.001-8.508-2.929-16.341-7.823-22.561zm50.946 22.562c0 1.701.126 3.373.352 5.014h-2.427V344.547h61.304c2.214 0 3.946.942 5.149 2.8l27.378 42.282c.709 1.094.985 2.028.985 3.333v28.341h-3.915a7 7 0 1 0 0 14H489v12.122h-24.964c-6.428-10.515-18.016-17.549-31.217-17.549-20.16 0-36.561 16.402-36.561 36.562zM432.819 489c-12.44 0-22.562-10.121-22.562-22.562s10.121-22.562 22.562-22.562 22.562 10.121 22.562 22.562S445.26 489 432.819 489zm52.99-17.548h-16.78a36.69 36.69 0 0 0 .352-5.014c0-1.701-.126-3.373-.352-5.013H489v6.836a3.195 3.195 0 0 1-3.191 3.191zm-11.935-82.353a7 7 0 0 0-.273-7.148l-17.676-27.297a7 7 0 0 0-5.876-3.195h-34.417a7 7 0 0 0-7 7v27.297a7 7 0 0 0 7 7h52.093a7.002 7.002 0 0 0 6.149-3.657zm-51.242-10.344v-13.297h23.61l8.61 13.297zm-289.255 87.683c0-4.269 3.46-7.729 7.729-7.729s7.729 3.46 7.729 7.729a7.73 7.73 0 0 1-15.458 0zm-76.299 0a7.73 7.73 0 1 1 15.458 0 7.73 7.73 0 0 1-15.458 0zm267.225 0a7.73 7.73 0 1 1-15.46-.002 7.73 7.73 0 0 1 15.46.002zm116.245 0a7.73 7.73 0 1 1-15.46-.002 7.73 7.73 0 0 1 15.46.002z" fill="#00e6ad" opacity="1" data-original="#000000" class="hovered-path"></path></g></svg>